#define imageMCL_width  16
#define imageMCL_height 16
static unsigned char imageMCL_bits[] = {
 0x41,0x2f,0x63,0x21,0x77,0x21,0x5d,0x21,0x49,0x21,0x49,0x21,
 0x49,0x21,0x41,0x21,0x41,0xef,0x00,0x00,0x00,0x00,0x08,0x10,
 0x1c,0x38,0x36,0x6c,0x63,0xc6,0xff,0xff};
